<mxfile host="app.diagrams.net" modified="2023-06-03T10:50:03.969Z" agent="Mozilla/5.0 (Windows NT 10.0; Win64; x64) AppleWebKit/537.36 (KHTML, like Gecko) Chrome/113.0.0.0 Safari/537.36" version="21.3.7" etag="IAyzENUUEMLjDVHOiKmP" type="github">
  <diagram name="Страница 1" id="nTJlk4Tllj6XGVUnD8gV">
    <mxGraphModel>
      <root>
        <mxCell id="0" />
        <mxCell id="1" parent="0" />
      </root>
    </mxGraphModel>
  </diagram>
</mxfile>
